HIERARCHY
ROOT Hips
{
  OFFSET 0 0 0
  CHANNELS 6 Xposition Yposition Zposition Zrotation Yrotation Xrotation
  JOINT LeftThigh
  {
    OFFSET 8.409438 0 -5.917753
    CHANNELS 3 Zrotation Yrotation Xrotation
    JOINT LeftLeg
    {
      OFFSET 0 0 -42.358652
      CHANNELS 3 Zrotation Yrotation Xrotation
      JOINT LeftFoot
      {
        OFFSET 0 0 -39.357303
        CHANNELS 3 Zrotation Yrotation Xrotation
      }
    }
  }
  JOINT RightThigh
  {
    OFFSET -8.409438 0 -5.917753
    CHANNELS 3 Zrotation Yrotation Xrotation
    JOINT RightLeg
    {
      OFFSET 0 0 -42.358652
      CHANNELS 3 Zrotation Yrotation Xrotation
      JOINT RightFoot
      {
        OFFSET 0 0 -39.357303
        CHANNELS 3 Zrotation Yrotation Xrotation
      }
    }
  }
  JOINT SpineLow
  {
    OFFSET 0 0 4.719101
    CHANNELS 3 Zrotation Yrotation Xrotation
    JOINT SpineMid
    {
      OFFSET 0 0 12.899191
      CHANNELS 3 Zrotation Yrotation Xrotation
      JOINT Chest
      {
        OFFSET 0 0 12.899191
        CHANNELS 3 Zrotation Yrotation Xrotation
        JOINT LeftShoulder
        {
          OFFSET 7.550562 1.41573 9.438202
          CHANNELS 3 Zrotation Yrotation Xrotation
          JOINT LeftArm
          {
            OFFSET 9.155056 0 4.247191
            CHANNELS 3 Zrotation Yrotation Xrotation
            JOINT LeftForearm
            {
              OFFSET 0 0 25.771955
              CHANNELS 3 Zrotation Yrotation Xrotation
              JOINT LeftHand
              {
                OFFSET 0 0 25.197169
                CHANNELS 3 Zrotation Yrotation Xrotation
              }
            }
          }
        }
        JOINT RightShoulder
        {
          OFFSET -7.550562 1.41573 9.438202
          CHANNELS 3 Zrotation Yrotation Xrotation
          JOINT RightArm
          {
            OFFSET -9.155056 0 4.247191
            CHANNELS 3 Zrotation Yrotation Xrotation
            JOINT RightForearm
            {
              OFFSET 0 0 -25.771955
              CHANNELS 3 Zrotation Yrotation Xrotation
              JOINT RightHand
              {
                OFFSET 0 0 -25.197169
                CHANNELS 3 Zrotation Yrotation Xrotation
              }
            }
          }
        }
        JOINT Neck
        {
          OFFSET 0 0 15.101124
          CHANNELS 3 Zrotation Yrotation Xrotation
          JOINT Head
          {
            OFFSET 0 0 11.325843
            CHANNELS 3 Zrotation Yrotation Xrotation
            End Site
            {
              OFFSET 0 0 14.157303
            }
          }
        }
      }
    }
  }
}
MOTION
Frames: 14
Frame Time: 0.0
0.0  93.25843  0.0  -1.957246  -28.166731  -92.04614  31.758421  -24.079692  -25.806991  7.863951  5.255855  29.614279  1.851469  0.996686  3.584509  3.117535  16.137848  14.122862  -26.389079  -6.522574  3.380182  4.812786  4.512074  -3.669334  2.96526  -0.784961  -0.01412  8.108313  -2.140174  -0.13474  8.108313  -2.140174  -0.13474  -28.75431  16.924322  -4.301654  -156.043608  65.43822  -97.141544  -33.307782  -5.686452  76.264333  38.762367  -16.139772  16.992515  -1.3597  -12.319436  17.743518  100.981623  36.961091  29.968582  -23.393098  -12.214659  -107.701256  71.022909  31.386239  10.539583  9.561728  0.120128  7.795456  7.171149  0.21219  5.846411  
0.0  93.25843  0.0  -1.98247  -27.910744  -91.847333  32.03663  -24.275659  -26.265108  8.561862  5.634451  29.981632  2.153231  1.129207  3.59803  3.255227  16.080182  14.184509  -26.557392  -6.555118  3.213748  4.63392  4.424189  -3.642457  3.026124  -0.753456  -0.0152  8.274538  -2.053889  -0.13571  8.274538  -2.053889  -0.13571  -28.85648  16.625305  -4.747018  -158.358342  65.29751  -99.046149  -33.368601  -5.97279  75.761217  38.864126  -15.9284  16.810688  -1.004239  -12.678445  17.349732  100.23431  38.06729  29.262378  -24.417176  -12.021981  -106.893752  71.040382  31.208939  10.58793  9.301453  0.109213  7.684575  6.976025  0.198983  5.763353  
0.0  93.25843  0.0  -1.773229  -28.530131  -91.97446  33.216291  -24.417063  -26.391186  9.407356  6.020663  30.442126  2.1917  1.235074  3.507502  4.174543  16.202862  14.42438  -26.928884  -6.563307  3.154502  4.666031  4.347909  -3.643915  3.23014  -0.701129  0.009176  8.831275  -1.913762  -0.068534  8.831275  -1.913762  -0.068534  -28.823575  16.403103  -5.162531  -161.224155  65.119402  -101.440374  -33.477724  -6.226753  75.194687  38.938183  -15.642271  16.708882  -0.798281  -13.108818  16.865097  99.640622  39.15754  28.553319  -25.338395  -11.809522  -105.968048  71.063274  30.957118  10.582815  8.872149  -3.2E-4  7.561103  6.655326  0.109595  5.672252  
0.0  93.25843  0.0  -1.851201  -28.260429  -91.846678  33.728935  -24.538357  -26.715321  10.220133  6.3446  30.789648  2.268151  1.31478  3.49624  4.250717  16.118157  14.617912  -27.370089  -6.438597  3.024442  4.632271  4.226768  -3.680026  3.318803  -0.677466  -0.010208  9.074079  -1.84638  -0.120733  9.074079  -1.84638  -0.120732  -28.774604  16.221193  -5.418201  -164.346805  64.732175  -104.017794  -33.560375  -6.495411  74.573588  39.11563  -15.262326  16.617901  -0.461182  -13.588968  16.498481  98.858847  40.589838  27.819121  -26.099249  -11.677062  -104.926324  71.202315  30.61577  10.625551  8.591742  -0.001472  7.595315  6.445008  0.105739  5.697844  
0.0  93.25843  0.0  -1.761141  -28.550443  -91.972984  34.763985  -24.515646  -26.720307  11.157188  6.578258  31.084442  2.131493  1.394727  3.396742  4.446617  15.824537  15.002842  -27.924029  -6.211596  2.630581  4.82592  4.273592  -3.694838  3.512106  -0.640245  -0.010961  9.602338  -1.744216  -0.122769  9.602338  -1.744216  -0.122769  -28.625708  16.05224  -5.437709  -167.46391  63.957629  -106.540007  -33.433378  -6.76055  73.909519  39.470071  -14.841233  16.464478  -0.452461  -14.125604  16.080108  98.443113  42.003391  27.222015  -26.791321  -11.597151  -103.752807  71.529936  30.201025  10.607518  8.103295  -0.09401  7.61884  6.079763  0.030542  5.716568  
0.0  93.25843  0.0  -1.745216  -28.212742  -91.902934  35.397779  -24.294367  -26.842649  12.056052  6.768913  31.273937  2.17665  1.374716  3.373918  4.552489  15.806714  15.376802  -28.470595  -6.113811  2.344906  4.689492  4.219259  -3.65966  3.621871  -0.611988  -0.052759  9.903276  -1.660607  -0.235407  9.903276  -1.660607  -0.235407  -28.463063  15.841979  -5.339602  -170.381274  62.732293  -109.007151  -33.02222  -6.968764  73.194583  39.991348  -14.435481  16.19621  -0.174336  -14.600327  15.937016  97.796359  43.826485  26.572595  -27.562323  -11.450379  -102.390635  72.025345  29.719779  10.541166  7.741163  -0.111492  7.77116  5.808404  0.014838  5.830891  
0.0  93.25843  0.0  -1.570145  -28.322491  -92.023112  36.546244  -23.930027  -26.754155  12.972758  6.938749  31.455308  2.355026  1.322418  3.339841  4.857494  15.984407  15.805774  -29.052282  -6.101978  2.129329  4.687774  4.282406  -3.63032  3.72006  -0.597718  -0.100344  10.172741  -1.613945  -0.365404  10.172741  -1.613945  -0.365404  -27.698129  15.85969  -5.033428  -173.078663  61.249118  -111.420031  -32.387816  -7.114651  72.474959  40.751769  -14.071213  15.700875  -0.207619  -15.020981  15.429703  98.281187  44.846776  26.265592  -28.54833  -11.149222  -100.791344  72.345423  29.209564  10.270862  7.566472  -0.095288  8.025126  5.677266  0.02792  6.021119  
0.0  93.25843  0.0  -1.489237  -27.807422  -91.976475  37.257947  -23.421481  -26.79642  13.945914  6.934367  31.61266  2.593862  1.290622  3.383406  4.246241  16.324914  16.037903  -29.051324  -6.053899  2.011638  4.390079  4.297408  -3.630525  3.813177  -0.57012  -0.148055  10.428109  -1.530602  -0.493364  10.428109  -1.530602  -0.493364  -27.437044  15.751773  -4.798455  -175.611664  59.605933  -113.816334  -31.566953  -7.092817  71.841003  41.897477  -13.709693  14.838778  0.265718  -15.479216  15.203017  97.935626  46.637582  25.819654  -29.659101  -10.833672  -98.999076  72.316036  28.820847  9.793215  7.157933  -0.109235  8.180094  5.371053  0.013904  6.137347  
0.0  93.25843  0.0  -1.314841  -27.377014  -92.04497  38.126183  -22.778998  -26.687238  14.86262  6.963262  31.780574  2.833539  1.205279  3.395643  3.537261  16.917352  16.207338  -29.137518  -6.111837  2.089834  4.27082  4.432576  -3.590653  3.897199  -0.540325  -0.183798  10.658206  -1.442942  -0.587903  10.658206  -1.442942  -0.587903  -27.227699  15.687732  -4.710868  -177.784243  57.856399  -116.437427  -30.623035  -6.789703  71.346854  43.388998  -13.275163  13.703373  0.850732  -15.916537  14.798591  97.834129  48.167808  25.442695  -30.665613  -10.699864  -97.094921  72.110726  28.575558  9.273784  6.816213  -0.113203  8.318053  5.114823  0.007889  6.240722  
0.0  93.25843  0.0  -1.204405  -26.605728  -92.062003  38.749159  -22.061068  -26.58731  15.710566  6.991257  31.946441  2.890422  1.114342  3.370709  2.511468  17.540502  16.255532  -29.044267  -6.097491  2.408889  4.046966  4.616062  -3.573034  3.962  -0.504253  -0.217816  10.835544  -1.338444  -0.676088  10.835544  -1.338444  -0.676089  -27.072733  15.617249  -4.55216  -179.790337  56.073105  -118.909705  -29.622588  -6.291269  70.903475  45.050797  -12.752568  12.481995  1.519111  -16.40728  14.374352  97.612998  49.763068  25.037535  -31.494383  -10.843841  -95.113997  72.153316  28.368604  8.869964  6.398306  -0.133154  8.386321  4.801627  -0.012056  6.291951  
0.0  93.25843  0.0  -0.783353  -26.583498  -92.414682  40.012156  -21.144888  -26.090011  16.209353  7.192706  32.035602  2.783635  1.041204  3.249533  2.43713  18.430314  16.491644  -29.043233  -5.99098  2.925448  3.841175  4.79631  -3.595805  4.117789  -0.457173  -0.22618  11.26089  -1.207028  -0.69394  11.260889  -1.207028  -0.69394  -26.870193  15.755533  -4.256396  178.793554  54.295805  -121.217149  -28.696222  -5.435651  70.578567  46.667921  -12.046311  11.424844  2.343451  -16.741925  14.128201  97.459314  51.331101  24.577259  -32.1784  -11.256672  -93.096341  72.146109  28.195081  8.360774  6.090993  -0.119305  8.506243  4.570955  -0.004689  6.381621  
0.0  93.25843  0.0  -0.691777  -25.637361  -92.546723  40.303086  -20.162119  -25.668294  16.181806  7.51269  31.871346  2.51468  1.005303  3.018688  1.409702  19.142582  16.56867  -29.004966  -5.758541  3.639108  3.688126  4.947545  -3.628783  4.179365  -0.40895  -0.252533  11.428933  -1.070425  -0.758493  11.428933  -1.070425  -0.758493  -26.902841  15.792611  -3.819589  177.329991  52.587567  -123.31673  -27.983879  -4.430534  70.133508  47.966884  -11.266536  10.732092  2.978442  -17.262491  13.843816  97.405508  52.904722  24.236216  -32.883407  -11.84896  -91.034661  72.086402  28.071359  7.613438  5.644527  -0.224608  8.550693  4.237517  -0.0895  6.415736  
0.0  93.25843  0.0  -0.580376  -24.614736  -92.809884  40.154149  -18.935075  -24.887886  14.073934  9.434499  30.232767  4.382805  0.366035  3.458214  0.320065  19.952194  16.633413  -28.807384  -5.382215  4.594702  3.52057  5.119534  -3.68554  4.245316  -0.366272  -0.257369  11.60864  -0.95253  -0.765209  11.60864  -0.95253  -0.765209  -26.97747  15.906886  -3.319848  175.580489  51.077918  -125.460704  -27.670481  -3.263459  69.559237  48.763711  -10.63613  10.616723  3.502966  -17.750737  13.595589  97.706681  54.405746  24.235851  -33.762669  -12.546455  -88.968069  70.69686  28.312927  6.067537  5.109924  -0.332167  8.57833  3.837992  -0.177446  6.437041  
0.0  93.25843  0.0  -0.456765  -23.4681  -93.157999  39.564667  -17.457947  -23.770633  13.025354  9.419003  28.97403  4.131981  0.62515  3.315071  -0.781156  20.808558  16.59965  -28.509672  -4.730194  5.866147  3.339814  5.395956  -3.758528  4.285934  -0.334534  -0.255722  11.719183  -0.865886  -0.755665  11.719183  -0.865886  -0.755665  -26.963128  16.24963  -2.66245  173.943157  49.883558  -127.333064  -27.477987  -1.929327  68.862807  49.354195  -10.182598  11.023012  4.046946  -18.118613  13.508562  98.134436  55.907194  24.363057  -34.769269  -13.062941  -86.881309  70.584903  28.330065  5.416534  4.594006  -0.436935  8.657291  3.452499  -0.262695  6.496656  
